<?xml version="1.0" standalone="no"?>
<!DOCTYPE svg PUBLIC "-//W3C//DTD SVG 20010904//EN"
 "http://www.w3.org/TR/2001/REC-SVG-20010904/DTD/svg10.dtd">
<svg version="1.0" xmlns="http://www.w3.org/2000/svg"
 width="192.000000pt" height="192.000000pt" viewBox="0 0 192.000000 192.000000"
 preserveAspectRatio="xMidYMid meet">
<g transform="translate(0.000000,192.000000) scale(0.040000,-0.040000)"
fill="#fb923c" stroke="none">
<path d="M788 3426 c-76 -30 -186 -149 -244 -263 -67 -132 -65 -536 5 -698
152 -354 625 -367 814 -22 34 62 44 145 47 375 2 281 -1 299 -66 400 -130 200
-363 287 -556 208z m325 -227 c144 -134 142 -601 -4 -771 -110 -128 -338 -30
-373 161 -33 175 -2 527 52 586 97 109 224 118 325 24z"/>
<path d="M1640 3429 c-7 -11 -14 -289 -17 -618 l-5 -598 122 0 123 0 -10 243
c-7 207 -3 246 32 259 65 25 154 -9 186 -71 36 -71 76 -135 148 -236 31 -44
56 -95 56 -114 0 -61 58 -94 168 -94 80 0 107 10 107 39 0 33 -86 176 -127
211 -8 7 -56 72 -107 144 l-92 131 82 50 c45 27 89 50 98 50 27 0 121 211 121
272 0 216 -174 319 -570 337 -167 8 -309 6 -315 -5z m585 -220 c63 -32 75 -52
75 -132 0 -135 -58 -176 -272 -194 l-178 -15 0 187 c0 103 8 195 19 205 27 28
268 -7 356 -51z"/>
<path d="M2855 3396 c-81 -52 -180 -207 -180 -283 0 -160 215 -335 462 -376
202 -33 292 -134 228 -257 -47 -91 -82 -105 -255 -105 -142 0 -171 17 -276
161 -52 72 -54 73 -118 31 -83 -54 -83 -102 -1 -221 81 -116 189 -156 425
-155 348 2 558 251 428 508 -42 83 -211 194 -318 209 -114 15 -307 88 -331
125 -110 173 217 333 370 181 33 -34 61 -73 61 -88 0 -41 199 -32 215 9 22 57
-58 183 -159 252 -126 86 -424 91 -551 9z"/>

<path d="M4355 2295 c-21 -21 -30 -158 -30 -456 -1 -626 27 -602 -695 -624
l-507 -16 42 63 c22 35 48 63 57 63 42 1 226 197 241 257 21 81 -21 143 -96
143 -72 0 -629 -545 -629 -615 0 -33 104 -162 281 -346 242 -251 291 -291 350
-284 59 6 70 20 76 98 7 83 -4 99 -144 212 -244 198 -238 201 384 199 l535 -1
109 77 c203 146 231 230 241 742 7 322 1 455 -21 482 -36 44 -153 47 -194 6z"/>
</g>
</svg>
